<svg width="100" height="100" viewBox="0 0 100 100" fill="none" xmlns="http://www.w3.org/2000/svg">
    <g clip-path="url(#clip0)">
        <path d="M22.8662 23.0327C22.897 25.6871 24.1313 28.1841 26.2215 29.8206C28.3117 31.4572 31.0319 32.0563 33.6162 31.4493C35.881 33.3665 38.7046 34.5006 41.6662 34.6827V38.6493C37.3162 39.6493 34.9996 41.3493 34.9996 43.6493C34.9996 45.9493 37.3162 47.5993 41.6662 48.6493C41.7899 51.9801 40.1742 55.1358 37.3996 56.9827C36.8204 57.4015 36.5727 58.143 36.784 58.8258C36.9952 59.5087 37.6184 59.9808 38.3329 59.9993C38.6653 60.0001 38.9903 59.9014 39.2662 59.716C42.8158 57.3588 44.9639 53.3935 44.9996 49.1327C48.3211 49.5299 51.6781 49.5299 54.9996 49.1327C55.0315 53.3903 57.173 57.355 60.7162 59.716C60.9968 59.9046 61.3282 60.0034 61.6662 59.9993C62.4002 60.001 63.0489 59.5222 63.2637 58.8204C63.4785 58.1185 63.2088 57.3587 62.5996 56.9493C59.825 55.1025 58.2092 51.9467 58.3329 48.616C62.6829 47.616 64.9996 45.916 64.9996 43.616C64.9996 41.316 62.6829 39.666 58.3329 38.616V34.6827C61.3162 34.6337 64.1743 33.475 66.3496 31.4327C68.926 32.0618 71.6488 31.4837 73.7474 29.8619C75.8459 28.2402 77.092 25.7512 77.1329 23.0993C77.1321 20.5069 75.9551 18.0548 73.9329 16.4327C74.5447 12.5581 73.0042 8.657 69.9104 6.24569C66.8166 3.83438 62.6574 3.29325 59.0496 4.83266C57.0252 1.817 53.6317 0.0078125 49.9996 0.0078125C46.3674 0.0078125 42.9739 1.817 40.9496 4.83266C37.357 3.31726 33.2265 3.85599 30.1428 6.24216C27.0591 8.62833 25.501 12.4914 26.0662 16.3493C24.0395 17.9751 22.862 20.4344 22.8662 23.0327ZM38.3329 43.5993C39.3005 42.8243 40.4462 42.303 41.6662 42.0827V45.116C40.4423 44.9084 39.2935 44.3857 38.3329 43.5993ZM44.9996 45.766V34.3493C46.8806 33.8378 48.6009 32.8572 49.9996 31.4993C51.4226 32.8059 53.1366 33.7544 54.9996 34.266V45.766C51.6793 46.1827 48.3199 46.1827 44.9996 45.766ZM61.6662 43.5993C60.7013 44.3786 59.5544 44.9005 58.3329 45.116V42.0827C59.5529 42.303 60.6986 42.8243 61.6662 43.5993ZM28.7829 18.4993C29.4083 18.1192 29.7125 17.3755 29.5329 16.666C27.6662 10.2827 34.9996 4.99933 40.7496 8.51599C41.9129 9.23868 42.8577 10.2642 43.4829 11.4827C43.9401 12.2067 44.8716 12.4665 45.6375 12.0836C46.4034 11.7006 46.7545 10.7995 46.4496 9.99932C45.8024 8.71939 44.9006 7.5851 43.7996 6.66599C45.2154 4.64227 47.5297 3.43689 49.9996 3.43689C52.4694 3.43689 54.7837 4.64227 56.1996 6.66599C55.0985 7.5851 54.1967 8.71939 53.5496 9.99932C53.214 10.8052 53.5571 11.7335 54.3361 12.1274C55.1152 12.5213 56.0662 12.2473 56.5162 11.4993C57.1425 10.2762 58.094 9.24967 59.2662 8.53266C64.9996 4.99932 72.3329 10.166 70.4662 16.666C70.2534 17.3963 70.5619 18.178 71.2162 18.566C73.1806 19.8502 74.0706 22.2705 73.4061 24.5214C72.7415 26.7723 70.6798 28.3212 68.3329 28.3327C65.645 28.3564 63.3463 26.4053 62.9329 23.7493C62.7957 22.8449 61.9552 22.2201 61.0496 22.3493C60.1384 22.4783 59.5042 23.3214 59.6329 24.2327C59.9639 26.4698 61.1611 28.4871 62.9662 29.8493C59.1897 32.3986 54.0821 31.5741 51.2996 27.966C50.9839 27.5592 50.4978 27.3212 49.9829 27.3212C49.468 27.3212 48.9819 27.5592 48.6662 27.966C47.1329 30.1122 44.6366 31.3604 41.9996 31.2993C40.2726 31.1829 38.5957 30.6696 37.0996 29.7993C38.9064 28.4459 40.1047 26.4329 40.4329 24.1993C40.5616 23.2881 39.9274 22.445 39.0162 22.316C38.1106 22.1867 37.2701 22.8116 37.1329 23.716C36.8449 25.6631 35.5048 27.2918 33.6496 27.9493C31.9905 28.5791 30.1288 28.3617 28.6594 27.3667C27.1901 26.3717 26.2972 24.7236 26.2662 22.9493C26.2775 21.1301 27.2297 19.4464 28.7829 18.4993Z" fill="black" />
        <path d="M33.5004 17.332C34.034 17.3317 34.5351 17.0758 34.8484 16.6438C35.1616 16.2119 35.2491 15.656 35.0837 15.1487C34.9322 14.7246 34.9749 14.2553 35.2004 13.8654C35.6432 13.4389 36.2589 13.2419 36.8671 13.332C37.7875 13.332 38.5337 12.5859 38.5337 11.6654C38.5337 10.7449 37.7875 9.99872 36.8671 9.99872C30.6837 9.78205 30.5337 17.332 33.5004 17.332Z" fill="black" />
        <path d="M58.049 63.3329C53.7657 63.9662 52.6156 63.1995 50.499 63.8995C47.6157 64.8995 46.5157 68.2162 46.6823 71.0662C47.0657 77.3662 53.199 78.2995 55.7157 81.0662C58.7157 84.3995 56.549 87.7329 59.049 89.7495C60.7083 90.8699 62.9414 90.5846 64.2656 89.0829C66.2076 87.2614 67.5305 84.8777 68.049 82.2662C68.3264 80.921 68.4936 79.5553 68.549 78.1829C68.8323 74.4662 68.949 74.1495 70.0323 72.4162C70.5788 71.6685 71.0322 70.8569 71.3823 69.9995C72.6656 66.2495 69.7157 61.6662 63.6657 62.2662C61.6657 62.4995 59.899 63.0829 58.049 63.3329ZM64.049 65.5495C65.4049 65.2731 66.8089 65.6993 67.7823 66.6829C68.899 68.1329 68.1657 69.2829 67.2823 70.6829C66.0323 72.6995 65.6157 73.3829 65.3157 77.9662C65.099 80.9162 64.7823 84.2495 62.1157 86.6329C61.6323 87.0662 61.2657 87.1829 61.1657 87.1329C60.699 86.7829 61.4823 82.5329 58.199 78.7995C55.149 75.4662 50.2657 75.0329 50.0157 70.7829C49.9157 69.1162 50.4157 67.4495 51.5657 66.9995C52.1964 66.8363 52.8518 66.7911 53.499 66.8662C58.6323 67.1329 61.3157 65.8829 64.049 65.5662V65.5495Z" fill="black" />
        <path d="M70.8163 44.482C70.3744 44.0575 69.7352 43.9098 69.1518 44.0973C68.5684 44.2848 68.1349 44.7774 68.0231 45.3799C67.9113 45.9824 68.1391 46.5976 68.6163 46.982C72.0552 49.9876 74.7095 53.7862 76.3497 58.0487C73.6163 57.4487 71.483 57.1487 70.0997 56.032C68.3158 54.7341 66.8791 53.0169 65.9163 51.032C65.5758 50.176 64.6057 49.7581 63.7497 50.0987C62.8936 50.4393 62.4758 51.4093 62.8163 52.2654C63.9907 54.7654 65.7728 56.9313 67.9997 58.5654C70.1663 60.232 72.6663 60.582 77.5163 61.632C80.6743 74.6287 74.2798 88.0579 62.1997 93.7987C57.8163 88.6654 42.1997 88.6487 37.7997 93.7987C36.7979 93.2965 35.8242 92.7402 34.883 92.132C34.4663 85.3487 34.1663 83.282 36.4497 79.0987C37.7959 77.1452 38.4581 74.8012 38.333 72.432C37.9497 69.0987 35.383 67.9654 34.033 66.3154C29.583 60.9487 38.5163 56.132 30.4663 47.682C30.783 47.3987 31.0663 47.082 31.383 46.7987C31.8602 46.4143 32.0881 45.799 31.9762 45.1965C31.8644 44.594 31.431 44.1015 30.8476 43.914C30.2642 43.7265 29.625 43.8742 29.183 44.2987C22.2874 50.3833 18.3361 59.1357 18.333 68.332C18.327 82.9338 28.306 95.6466 42.4915 99.1087C56.6769 102.571 71.3905 95.8845 78.1119 82.9217C84.8333 69.9589 81.8198 54.0808 70.8163 44.482ZM28.183 50.3154C32.1163 54.532 30.3497 56.5987 29.533 61.0654C29.0473 63.7487 29.753 66.5105 31.4663 68.632C33.0163 70.4987 34.7997 71.1487 35.033 72.982C35.0279 74.6502 34.5037 76.2754 33.533 77.632C31.8663 80.5987 30.9497 82.632 31.383 89.632C19.7941 79.5813 18.372 62.1078 28.183 50.3154ZM41.2497 95.3154C45.333 92.732 54.583 92.732 58.7497 95.3154C53.0605 97.1665 46.9282 97.149 41.2497 95.2654V95.3154Z" fill="black" />
    </g>
    <defs>
        <clipPath id="clip0">
            <rect width="100" height="100" fill="white" />
        </clipPath>
    </defs>
</svg>
