<svg width="55" height="57" viewBox="0 0 55 57" fill="none" xmlns="http://www.w3.org/2000/svg">
    <path d="M35.7381 37.1519C36.3806 39.1172 37.0109 41.0704 37.6898 43.1569C37.2412 43.1569 36.8776 43.1569 36.5018 43.1569C35.629 43.1569 34.7683 43.1448 33.8955 43.1691C33.5076 43.1812 33.2772 43.0356 33.0833 42.6959C31.0225 39.1293 28.9253 35.587 26.8645 32.0204C26.6463 31.6443 26.4524 31.5473 26.0039 31.6201C23.834 31.9719 21.6519 32.263 19.4699 32.5663C19.3123 32.5906 19.0941 32.5542 18.9608 32.4693C16.8394 31.0256 14.7301 29.5699 12.6208 28.1141C12.5966 28.0899 12.5845 28.0413 12.536 27.9564C12.9481 27.1679 13.3724 26.3551 13.8452 25.4452C12.8754 25.2875 11.9905 25.1419 11.0934 25.0085C9.75995 24.8023 8.4265 24.5839 7.08092 24.4019C6.70513 24.3534 6.5233 24.22 6.40207 23.856C5.32319 20.3622 4.20793 16.8805 3.14117 13.3867C3.06844 13.1441 3.12905 12.7801 3.27452 12.586C4.83829 10.4509 6.4142 8.32794 8.01434 6.21709C8.19618 5.97446 8.47499 5.7561 8.7538 5.64692C13.5057 3.7787 18.2698 1.93474 23.0339 0.0907771C23.2642 0.00585788 23.543 -0.0305361 23.7733 0.0301205C30.6588 1.69211 37.5443 3.3541 44.4176 5.05248C44.7692 5.1374 45.145 5.40429 45.3632 5.69544C47.9089 9.21353 50.4424 12.7316 52.9396 16.2982C53.2184 16.6985 53.2791 17.2808 53.3275 17.7904C53.667 20.9202 53.9579 24.0623 54.2973 27.1921C54.3458 27.6167 54.1155 27.7623 53.8488 27.9443C52.0183 29.2059 50.2 30.4797 48.3574 31.7292C48.018 31.9597 47.8604 32.2024 47.8846 32.6148C47.9452 33.7066 47.9695 34.7985 48.018 35.8903C48.0301 36.2421 47.9452 36.4362 47.5937 36.5696C44.9025 37.5644 42.2235 38.5713 39.5566 39.6146C39.1566 39.7723 38.902 39.7117 38.5868 39.4448C37.7989 38.729 36.9745 38.0375 36.1623 37.3339C36.0654 37.249 35.9441 37.1883 35.835 37.1034C35.8229 37.1034 35.7866 37.1277 35.7381 37.1519ZM43.3266 6.3384C36.9867 4.79773 30.7558 3.29344 24.5007 1.77703C24.4764 1.94687 24.4522 2.04392 24.4643 2.14097C24.7431 4.54297 25.0341 6.9571 25.2886 9.3591C25.3371 9.79583 25.5796 9.86862 25.9069 9.95354C29.9921 10.8998 34.0894 11.8339 38.1625 12.8044C38.5626 12.9014 38.7444 12.7923 38.9626 12.489C39.4839 11.7247 40.0415 10.9726 40.5749 10.2204C41.4598 8.98303 42.3447 7.73351 43.3266 6.3384ZM20.5731 15.17C20.4397 15.0729 20.4033 15.0244 20.3549 14.988C16.6818 12.586 13.0209 10.184 9.37204 7.75777C8.972 7.49088 8.83866 7.74564 8.65682 7.98826C7.54157 9.49255 6.42632 11.009 5.28682 12.5011C4.99589 12.8893 5.00801 13.1077 5.34743 13.4595C8.01434 16.2376 10.6691 19.0399 13.336 21.8301C13.8694 22.3881 14.427 22.934 15.0089 23.5163C16.8758 20.714 18.7062 17.9602 20.5731 15.17ZM26.113 29.9945C25.6523 26.0033 25.2038 22.1455 24.7553 18.2756C24.7431 18.1179 24.7189 17.8995 24.6098 17.8389C23.7249 17.2202 22.8157 16.6379 21.8701 16.0071C19.4578 19.9255 16.6454 23.4799 14.5483 27.5197C15.8211 28.4053 17.0818 29.1817 18.2335 30.0915C19.1063 30.783 19.9791 31.0984 21.0579 30.7466C21.3974 30.6374 21.7732 30.6496 22.1368 30.5889C23.446 30.3948 24.7553 30.2007 26.113 29.9945ZM34.0652 22.0485C34.1379 22.1576 34.1379 22.1819 34.15 22.194C36.3321 23.6498 38.5141 25.1055 40.7082 26.537C40.8416 26.622 41.181 26.5492 41.3143 26.4279C42.5993 25.2633 43.86 24.0744 45.0965 22.8613C45.2783 22.6793 45.4238 22.3396 45.3996 22.0849C45.242 20.1802 45.0238 18.2756 44.854 16.3589C44.8177 16.0071 44.6601 15.8736 44.357 15.8008C42.8296 15.4612 41.2901 15.1215 39.7627 14.7454C39.399 14.6605 39.2172 14.7697 39.0232 15.0487C37.8958 16.6622 36.7321 18.2756 35.5926 19.8891C35.0835 20.6048 34.5743 21.3327 34.0652 22.0485ZM22.8399 1.83769C18.7305 3.45115 14.7059 5.01609 10.5237 6.64169C14.2331 9.09221 17.8334 11.4457 21.4459 13.8356C22.2217 12.6709 22.9612 11.5913 23.6642 10.4873C23.7733 10.3175 23.7855 10.0627 23.7612 9.86862C23.6279 8.60696 23.4824 7.3453 23.3369 6.08365C23.1915 4.70068 23.0218 3.31771 22.8399 1.83769ZM25.6281 11.4942C25.6159 11.6519 25.5917 11.7368 25.6038 11.8096C25.7856 13.4352 25.9554 15.0608 26.1614 16.6864C26.1857 16.8684 26.3675 17.0746 26.5251 17.1838C28.4041 18.4455 30.2952 19.6707 32.1741 20.9324C32.5741 21.1993 32.8045 21.1871 33.0954 20.7747C34.4531 18.8215 35.8593 16.8926 37.2291 14.9516C37.3625 14.7697 37.4716 14.5634 37.6413 14.2723C33.5682 13.326 29.6163 12.4162 25.6281 11.4942ZM35.1804 34.3739C36.5503 35.5627 37.8595 36.7031 39.1808 37.8192C39.302 37.9162 39.5687 37.9283 39.7142 37.8798C41.8356 37.1034 43.9449 36.3027 46.0663 35.5142C46.4057 35.3929 46.539 35.1988 46.5027 34.8349C46.4421 34.0948 46.4663 33.3427 46.3693 32.6027C46.333 32.3358 46.1511 31.9961 45.9329 31.8384C44.9147 31.1227 43.86 30.4433 42.8054 29.7761C42.272 29.4243 41.678 28.8177 41.1689 28.8663C40.6476 28.9148 40.187 29.6184 39.7142 30.0673C38.2353 31.4624 36.7442 32.8817 35.1804 34.3739ZM33.1075 23.3829C31.4225 25.7606 29.7981 28.0535 28.1253 30.4191C30.0042 31.3896 31.7741 32.3358 33.5803 33.2335C33.75 33.3184 34.0894 33.2335 34.247 33.1001C35.035 32.4086 35.7866 31.6807 36.5503 30.9528C37.6292 29.9338 38.708 28.9026 39.8475 27.8108C37.5807 26.3187 35.3744 24.8629 33.1075 23.3829ZM51.885 18.6153C51.6547 18.7973 51.5092 18.8822 51.388 19.0035C50.1273 20.1924 48.8787 21.4055 47.5937 22.5701C47.1694 22.9462 47.0361 23.3344 47.1088 23.8924C47.327 25.797 47.4967 27.7016 47.6907 29.6184C47.7149 29.8004 47.7634 29.9823 47.824 30.2371C48.0665 30.0915 48.2241 30.0066 48.3695 29.9095C49.6181 29.0482 50.8425 28.1626 52.1153 27.3498C52.6487 27.0102 52.7578 26.6341 52.6972 26.0518C52.4669 24.0623 52.285 22.0727 52.0911 20.0953C52.0183 19.6343 51.9577 19.1855 51.885 18.6153ZM26.5978 19.1005C26.5372 19.1248 26.4887 19.1612 26.4281 19.1855C26.7797 22.2304 27.1312 25.2875 27.4949 28.4053C27.6404 28.2961 27.701 28.2718 27.7373 28.2233C29.0223 26.44 30.2952 24.6446 31.5801 22.8613C31.8104 22.5337 31.6165 22.3881 31.3862 22.2426C30.5982 21.7209 29.7981 21.2114 28.9981 20.6898C28.2101 20.1681 27.41 19.6343 26.5978 19.1005ZM29.3132 32.7847C29.2769 32.8211 29.2526 32.8575 29.2163 32.8939C29.2769 33.0152 29.3254 33.1486 29.386 33.2578C30.877 35.8175 32.3802 38.3772 33.8834 40.9369C34.2955 41.6284 34.6228 41.7376 35.4593 41.4343C35.4593 41.3979 35.4835 41.3494 35.4714 41.313C34.8046 39.2749 34.15 37.249 33.4712 35.2109C33.4227 35.0654 33.3257 34.8955 33.2045 34.8349C31.9074 34.1434 30.6103 33.464 29.3132 32.7847ZM5.91718 16.3589C5.86869 16.3953 5.8202 16.4317 5.78384 16.4681C6.42632 18.5182 7.0688 20.5806 7.73553 22.6308C7.78402 22.7763 8.01434 22.9219 8.17193 22.9462C9.57812 23.1888 10.9964 23.4072 12.4147 23.6255C12.5117 23.6377 12.6208 23.6134 12.8269 23.5891C10.463 21.1143 8.19618 18.7366 5.91718 16.3589ZM44.6722 14.3087C44.4661 12.21 44.2722 10.2447 44.0782 8.26728C44.0176 8.25515 43.957 8.23089 43.8843 8.21876C42.7084 9.86862 41.5325 11.5306 40.2961 13.2896C41.7992 13.6415 43.1569 13.9569 44.6722 14.3087ZM50.4424 15.6067C50.4788 15.5582 50.5152 15.5097 50.5515 15.4612C48.9999 13.3018 47.4482 11.1424 45.8966 8.98303C45.7511 9.14074 45.7269 9.22566 45.7269 9.29844C45.8844 10.9847 46.0299 12.671 46.2239 14.3451C46.236 14.5028 46.5148 14.709 46.6966 14.7575C47.6543 15.0123 48.612 15.2185 49.5696 15.4369C49.8606 15.5097 50.1515 15.5582 50.4424 15.6067ZM46.8542 20.9566C46.9148 20.9809 46.9755 21.0052 47.0361 21.0173C48.2968 19.8284 49.5575 18.6396 50.9516 17.3294C49.3272 16.9654 47.9089 16.6379 46.3936 16.2861C46.5512 17.9238 46.7088 19.4402 46.8542 20.9566ZM42.3084 27.5925C43.6176 28.4538 44.8177 29.2423 46.0057 30.0309C46.0663 29.9945 46.1148 29.9581 46.1754 29.9217C46.0057 28.1626 45.8238 26.3915 45.642 24.4383C44.4661 25.5544 43.4357 26.537 42.3084 27.5925ZM22.7672 14.709C23.3369 15.073 23.834 15.4005 24.4764 15.8251C24.3431 14.7454 24.234 13.8477 24.1249 12.95C24.0643 12.9378 24.0158 12.9378 23.9552 12.9257C23.5794 13.4837 23.2036 14.0418 22.7672 14.709Z" fill="black" />
    <path d="M3.4807 56.4045C2.81771 56.4045 2.22102 56.2658 1.69063 55.9886C1.16626 55.7053 0.753399 55.3135 0.45204 54.8133C0.15068 54.313 0 53.7465 0 53.1136C0 52.4808 0.15068 51.9142 0.45204 51.4139C0.753399 50.9137 1.16626 50.5249 1.69063 50.2477C2.22102 49.9644 2.81771 49.8228 3.4807 49.8228C4.05932 49.8228 4.58067 49.9252 5.04476 50.1302C5.50885 50.3351 5.8946 50.6304 6.20198 51.0162L5.06284 52.0468C4.65299 51.5526 4.15575 51.3055 3.57111 51.3055C3.22756 51.3055 2.92018 51.3808 2.64895 51.5315C2.38375 51.6822 2.17582 51.8961 2.02514 52.1734C1.88048 52.4446 1.80816 52.758 1.80816 53.1136C1.80816 53.4692 1.88048 53.7856 2.02514 54.0629C2.17582 54.3341 2.38375 54.5451 2.64895 54.6958C2.92018 54.8464 3.22756 54.9218 3.57111 54.9218C4.15575 54.9218 4.65299 54.6747 5.06284 54.1804L6.20198 55.2111C5.8946 55.5968 5.50885 55.8922 5.04476 56.0971C4.58067 56.302 4.05932 56.4045 3.4807 56.4045Z" fill="black" />
    <path d="M9.98824 56.4045C9.31922 56.4045 8.7165 56.2628 8.18008 55.9795C7.64969 55.6963 7.2308 55.3045 6.92341 54.8042C6.62205 54.304 6.47137 53.7404 6.47137 53.1136C6.47137 52.4868 6.62205 51.9232 6.92341 51.423C7.2308 50.9227 7.64969 50.531 8.18008 50.2477C8.7165 49.9644 9.31922 49.8228 9.98824 49.8228C10.6573 49.8228 11.257 49.9644 11.7874 50.2477C12.3238 50.531 12.7427 50.9227 13.044 51.423C13.3514 51.9232 13.5051 52.4868 13.5051 53.1136C13.5051 53.7404 13.3514 54.304 13.044 54.8042C12.7427 55.3045 12.3238 55.6963 11.7874 55.9795C11.257 56.2628 10.6573 56.4045 9.98824 56.4045ZM9.98824 54.9218C10.3077 54.9218 10.597 54.8464 10.8562 54.6958C11.1153 54.5451 11.3202 54.3341 11.4709 54.0629C11.6216 53.7856 11.6969 53.4692 11.6969 53.1136C11.6969 52.758 11.6216 52.4446 11.4709 52.1734C11.3202 51.8961 11.1153 51.6822 10.8562 51.5315C10.597 51.3808 10.3077 51.3055 9.98824 51.3055C9.6688 51.3055 9.37949 51.3808 9.12032 51.5315C8.86115 51.6822 8.65623 51.8961 8.50555 52.1734C8.35487 52.4446 8.27953 52.758 8.27953 53.1136C8.27953 53.4692 8.35487 53.7856 8.50555 54.0629C8.65623 54.3341 8.86115 54.5451 9.12032 54.6958C9.37949 54.8464 9.6688 54.9218 9.98824 54.9218Z" fill="black" />
    <path d="M18.2003 52.987C18.5499 53.1196 18.8241 53.3185 19.023 53.5837C19.2219 53.8489 19.3214 54.1533 19.3214 54.4969C19.3214 54.8886 19.1888 55.2292 18.9236 55.5185C18.6584 55.8078 18.2998 56.0308 17.8477 56.1875C17.3957 56.3382 16.8984 56.4135 16.356 56.4135C15.9281 56.4135 15.4911 56.3623 15.0451 56.2598C14.6051 56.1573 14.1832 56.0037 13.7794 55.7987L14.3128 54.5511C14.5961 54.6958 14.8974 54.8073 15.2169 54.8856C15.5423 54.9579 15.8557 54.9941 16.1571 54.9941C16.5549 54.9941 16.8804 54.9308 17.1335 54.8042C17.3866 54.6716 17.5132 54.4878 17.5132 54.2528C17.5132 54.0659 17.4349 53.9273 17.2782 53.8369C17.1214 53.7465 16.9105 53.7013 16.6453 53.7013H15.027V52.3904H16.5006C16.7417 52.3904 16.9286 52.3421 17.0612 52.2457C17.1938 52.1493 17.2601 52.0197 17.2601 51.8569C17.2601 51.652 17.1576 51.4953 16.9527 51.3868C16.7478 51.2723 16.4826 51.2151 16.1571 51.2151C15.8919 51.2151 15.6116 51.2542 15.3163 51.3326C15.021 51.4049 14.7407 51.5104 14.4755 51.649L13.9511 50.2929C14.6262 49.9674 15.3675 49.8047 16.1752 49.8047C16.6935 49.8047 17.1727 49.88 17.6127 50.0307C18.0587 50.1754 18.4113 50.3863 18.6704 50.6636C18.9356 50.9408 19.0682 51.2693 19.0682 51.649C19.0682 51.9443 18.9899 52.2095 18.8332 52.4446C18.6825 52.6736 18.4715 52.8544 18.2003 52.987Z" fill="black" />
    <path d="M26.3105 49.9493V56.2779H24.5204V53.8098H22.0794V56.2779H20.2893V49.9493H22.0794V52.3271H24.5204V49.9493H26.3105Z" fill="black" />
    <path d="M32.037 55.0483H29.3609L28.8636 56.2779H27.0374L29.831 49.9493H31.594L34.3966 56.2779H32.5342L32.037 55.0483ZM31.5126 53.7284L30.6989 51.7033L29.8853 53.7284H31.5126Z" fill="black" />
    <path d="M41.143 49.9493V56.2779H39.3529V53.8098H36.9119V56.2779H35.1218V49.9493H36.9119V52.3271H39.3529V49.9493H41.143Z" fill="black" />
    <path d="M42.5028 49.9493H44.2658V53.6651L46.8785 49.9493H48.5601V56.2779H46.7972V52.5712L44.1934 56.2779H42.5028V49.9493Z" fill="black" />
    <path d="M55 54.8947V56.2779H49.9191V49.9493H54.8825V51.3326H51.6911V52.3994H54.5028V53.7374H51.6911V54.8947H55Z" fill="black" />
</svg>
