<svg width="23" height="23" viewBox="0 0 23 23" fill="none" xmlns="http://www.w3.org/2000/svg">
    <path d="M1.9017 0.699219H21.1122C21.7737 0.699219 22.3002 1.22572 22.3002 1.88722V21.1112C22.3002 21.7592 21.7737 22.2992 21.1122 22.2992H15.6042V13.9292H18.4122L18.8307 10.6757H15.6042V8.59672C15.6042 7.65172 15.8742 7.00372 17.2242 7.00372H18.9522V4.08772C18.6552 4.04722 17.6292 3.96622 16.4412 3.96622C13.9437 3.96622 12.2427 5.47822 12.2427 8.27272V10.6757H9.4212V13.9292H12.2427V22.2992H1.9017C1.58536 22.2992 1.28178 22.1745 1.05684 21.9521C0.831903 21.7297 0.70375 21.4275 0.700195 21.1112V1.88722C0.700195 1.22572 1.2402 0.699219 1.9017 0.699219Z" fill="black" />
</svg>
