<svg width="21" height="21" viewBox="0 0 21 21" fill="none" xmlns="http://www.w3.org/2000/svg">
    <path d="M20.5658 6.34302C20.5545 5.49097 20.395 4.64739 20.0944 3.85002C19.8338 3.17744 19.4358 2.56661 18.9258 2.05658C18.4157 1.54654 17.8049 1.1485 17.1323 0.887891C16.3452 0.592417 15.5136 0.43265 14.6731 0.415391C13.5908 0.367016 13.2477 0.353516 10.5004 0.353516C7.7532 0.353516 7.40107 0.353516 6.3267 0.415391C5.4865 0.432776 4.65534 0.592542 3.86857 0.887891C3.19589 1.14832 2.58497 1.54629 2.07491 2.05635C1.56485 2.56641 1.16687 3.17733 0.906445 3.85002C0.61038 4.63654 0.450959 5.46789 0.43507 6.30814C0.386695 7.39152 0.37207 7.73464 0.37207 10.4819C0.37207 13.2291 0.37207 13.5801 0.43507 14.6556C0.451945 15.4971 0.61057 16.3274 0.906445 17.116C1.16731 17.7885 1.56558 18.3992 2.07581 18.909C2.58604 19.4189 3.19702 19.8167 3.8697 20.077C4.65431 20.3844 5.48561 20.5556 6.32782 20.5833C7.4112 20.6316 7.75432 20.6463 10.5016 20.6463C13.2488 20.6463 13.6009 20.6463 14.6753 20.5833C15.5159 20.5667 16.3475 20.4073 17.1346 20.1119C17.807 19.851 18.4176 19.4528 18.9276 18.9428C19.4376 18.4328 19.8358 17.8222 20.0967 17.1498C20.3926 16.3623 20.5512 15.532 20.5681 14.6894C20.6164 13.6071 20.6311 13.264 20.6311 10.5156C20.6288 7.76839 20.6288 7.41964 20.5658 6.34302ZM10.4937 15.6771C7.62045 15.6771 5.29282 13.3495 5.29282 10.4763C5.29282 7.60302 7.62045 5.27539 10.4937 5.27539C11.8731 5.27539 13.1959 5.82334 14.1713 6.79869C15.1466 7.77405 15.6946 9.09691 15.6946 10.4763C15.6946 11.8556 15.1466 13.1785 14.1713 14.1538C13.1959 15.1292 11.8731 15.6771 10.4937 15.6771ZM15.9016 6.29577C15.2299 6.29577 14.6888 5.75352 14.6888 5.08302C14.6888 4.92383 14.7202 4.7662 14.7811 4.61913C14.842 4.47206 14.9313 4.33843 15.0439 4.22587C15.1564 4.11331 15.2901 4.02402 15.4371 3.9631C15.5842 3.90218 15.7418 3.87083 15.901 3.87083C16.0602 3.87083 16.2178 3.90218 16.3649 3.9631C16.512 4.02402 16.6456 4.11331 16.7582 4.22587C16.8707 4.33843 16.96 4.47206 17.0209 4.61913C17.0818 4.7662 17.1132 4.92383 17.1132 5.08302C17.1132 5.75352 16.5709 6.29577 15.9016 6.29577Z" fill="black" />
</svg>
