<svg width="100" height="100" viewBox="0 0 100 100" fill="none" xmlns="http://www.w3.org/2000/svg">
    <g clip-path="url(#clip0)">
        <path d="M99.3775 78.5895C94.9233 75.0178 87.9317 72.432 81.7641 70.1475C80.5986 69.7162 79.4546 69.2932 78.339 68.867C75.8913 67.9529 73.9215 67.1737 72.2797 66.3694C71.2426 65.8652 70.2561 65.2622 69.3343 64.5693C64.9252 61.0726 64.6571 54.7452 64.8052 51.7565C66.1262 49.7662 67.1537 47.596 67.8556 45.3126C67.8956 45.1793 67.9173 45.0361 67.9538 44.9013C68.0853 44.9295 68.2219 44.9779 68.3483 44.9928C68.5065 45.0156 68.6664 45.0267 68.8262 45.0261C70.4486 44.9243 71.9094 44.0082 72.7075 42.5917C74.1102 39.9208 74.874 36.9609 74.9387 33.9448C75.0433 32.8094 74.9106 31.6646 74.5491 30.583C74.4127 30.2337 74.2326 29.903 74.0129 29.599C77.4295 18.1814 77.2965 9.78433 73.5533 4.70086C71.5394 1.93395 68.3842 0.223856 64.9665 0.046875H34.9949C31.578 0.22249 28.423 1.93083 26.4081 4.69579C22.665 9.78589 22.5317 18.183 25.9486 29.5939C25.7291 29.8973 25.5488 30.2275 25.4124 30.5763C25.0512 31.6562 24.9185 32.7992 25.0227 33.9331C25.0879 36.9603 25.8563 39.931 27.2673 42.6099C28.0632 44.0128 29.5122 44.9206 31.122 45.0242C31.2779 45.024 31.4338 45.0129 31.5882 44.9908C31.723 44.9742 31.868 44.9243 32.0077 44.8927C32.0426 45.0308 32.0661 45.174 32.1059 45.3089C32.8097 47.5919 33.8388 49.7615 35.1614 51.751C35.3095 54.7332 35.0416 61.0572 30.6407 64.5572C29.7204 65.2501 28.7358 65.8529 27.7001 66.3573C26.045 67.1764 24.0752 67.9558 21.6191 68.8733C20.5118 69.2961 19.3662 69.7191 18.2024 70.1504C12.0417 72.4316 5.0483 75.0174 0.589043 78.5891C0.250887 78.8868 0.0426854 79.3052 0.0095137 79.7546C-0.00765753 79.9105 -0.00160857 80.0683 0.0278557 80.2225V88.2965C0.0352706 94.7306 5.24928 99.9448 11.6834 99.952H88.2775C94.7116 99.9446 99.9258 94.7306 99.933 88.2965V80.354C100.122 79.7077 99.9028 79.0111 99.3775 78.5895ZM71.6138 33.7636C71.5942 36.213 71.0053 38.6242 69.8937 40.8069C69.4941 41.428 68.9963 41.7111 68.7848 41.6877C68.6619 41.6721 68.5411 41.6418 68.4252 41.5977L69.1296 31.7338C69.2328 31.6689 69.3261 31.5857 69.4293 31.5307C69.9134 31.2505 70.4859 31.1643 71.0311 31.2893C71.2329 31.3727 71.3831 31.5471 71.4358 31.7588C71.6235 32.4094 71.684 33.09 71.6138 33.7636ZM31.1503 41.6943C30.6875 41.5702 30.299 41.2555 30.0814 40.8285C28.9608 38.6384 28.3672 36.2169 28.3481 33.7569C28.2784 33.0855 28.3395 32.407 28.528 31.7588C28.5805 31.5483 28.7302 31.375 28.9309 31.2927C29.4742 31.1674 30.0447 31.2525 30.5277 31.5307C30.6342 31.5873 30.7275 31.6706 30.8325 31.7372L31.5351 41.5929C31.4124 41.645 31.2828 41.6793 31.1503 41.6943ZM34.9268 42.2639L34.9102 42.0192C34.9102 41.9892 34.9102 41.9609 34.9102 41.931L33.3301 20.0367C33.2563 18.69 33.7586 17.3752 34.7116 16.4206C35.6646 15.4661 36.9784 14.9616 38.3254 15.0331C40.0745 14.8779 41.8197 15.371 43.2291 16.4185C45.1839 17.8345 47.5725 18.5225 49.9811 18.3633C50.9008 18.3633 51.6462 17.6177 51.6462 16.6983C51.6462 15.7788 50.9008 15.0333 49.9811 15.0333C48.232 15.1884 46.4868 14.6953 45.0774 13.6479C43.1226 12.2318 40.734 11.5438 38.3254 11.703C36.073 11.6234 33.8905 12.4913 32.308 14.0963C30.7257 15.701 29.8884 17.8958 29.9999 20.1468L30.5659 28.0543C30.0244 27.9285 29.4668 27.8863 28.9124 27.9294C25.3459 15.5878 26.976 9.58354 29.0506 6.72121C30.4315 4.77306 32.6128 3.5461 34.9949 3.3777H64.9665C67.3254 3.542 69.4888 4.74789 70.8693 6.66795C72.9707 9.5252 74.6291 15.5328 71.0358 27.9294C70.4814 27.8863 69.9238 27.9289 69.3823 28.0559L69.9401 20.2299C70.5335 17.1141 69.5466 13.9064 67.3044 11.663C61.8595 6.43457 50.1923 8.3078 49.6978 8.39112C48.8125 8.56381 48.2258 9.40988 48.3741 10.2995C48.5225 11.1891 49.3522 11.7988 50.2455 11.6747C53.1594 11.1951 61.4831 10.6874 64.9999 14.0674C66.4854 15.6202 67.0977 17.8123 66.6318 19.9101L65.0583 41.9492V42.0124L65.0399 42.2639C64.9925 42.972 64.8674 43.6727 64.667 44.3535C63.3692 48.6926 60.6847 52.4863 57.0243 55.1533C55.6217 56.1416 53.9461 56.6682 52.2306 56.6602H47.7348C46.0196 56.6678 44.3447 56.1412 42.9427 55.1533C39.2829 52.4865 36.5981 48.6934 35.2999 44.3551C35.0995 43.6737 34.9744 42.9724 34.9268 42.2639ZM32.7022 67.172C36.065 64.2384 38.1055 60.0748 38.3634 55.6196C39.1816 56.4302 40.0593 57.1781 40.9893 57.8575C42.9602 59.2519 45.3168 59.9975 47.7311 59.9905H52.2269C54.6423 59.9975 56.9999 59.2521 58.9722 57.8575C59.9026 57.1787 60.7805 56.4306 61.598 55.6196C61.8587 60.0783 63.9041 64.2443 67.2728 67.177C67.9861 67.7245 68.7386 68.2194 69.5239 68.6573C67.7807 71.5028 62.2859 79.1473 52.4868 81.2288C50.8114 81.5796 49.0812 81.5739 47.4082 81.2122C37.6491 79.0925 32.1593 71.4398 30.4475 68.6575C31.2336 68.2165 31.9872 67.7203 32.7022 67.172ZM27.4439 70.1475C31.6534 77.3342 38.6019 82.5027 46.6956 84.4673C47.7799 84.702 48.8863 84.8203 49.9958 84.8203C51.0647 84.8208 52.1305 84.7092 53.1761 84.4872C61.311 82.5447 68.2981 77.3611 72.5162 70.1391C73.4503 70.5471 74.456 70.9549 75.5616 71.3795C72.7976 75.782 65.4311 85.4111 52.6583 87.8871C50.8896 88.2284 49.072 88.2284 47.3034 87.8871C34.5305 85.4111 27.1641 75.782 24.4001 71.3795C25.5041 70.9533 26.5032 70.5453 27.4439 70.1475ZM88.2779 96.6224H84.9993C85.0984 92.1883 86.6675 87.9128 89.4601 84.4673C90.09 83.8126 90.0787 82.774 89.435 82.133C88.7912 81.492 87.7526 81.4851 87.1007 82.1178C86.8891 82.3293 82.1803 87.1612 81.6691 96.6157H18.2926C17.7814 87.1614 13.0725 82.3293 12.861 82.1178C12.2091 81.4851 11.1704 81.492 10.5267 82.133C9.88297 82.774 9.87185 83.8126 10.5015 84.4673C13.2963 87.9115 14.8658 92.1879 14.9623 96.6224H11.6838C7.08816 96.6169 3.36395 92.8927 3.35829 88.2969V80.6607C7.43939 77.6802 13.7485 75.3458 19.3515 73.2744C19.991 73.0379 20.6004 72.8082 21.223 72.575C23.9421 77.0708 32.0793 88.3267 46.6688 91.1541C48.8566 91.5748 51.1047 91.5748 53.2926 91.1541C67.8821 88.3234 76.0193 77.0692 78.7385 72.5733C79.3611 72.8065 79.9723 73.0361 80.6099 73.2726C86.213 75.3439 92.5219 77.6784 96.5948 80.659L96.6032 88.2967C96.5979 92.8927 92.8737 96.6169 88.2779 96.6224Z" fill="black" />
    </g>
    <defs>
        <clipPath id="clip0">
            <rect width="100" height="100" fill="white" />
        </clipPath>
    </defs>
</svg>
