<svg width="24" height="33" viewBox="0 0 24 33" fill="none" xmlns="http://www.w3.org/2000/svg">
    <path d="M11.9997 9.89921e-10C8.88493 0.00260157 5.89771 1.23769 3.69053 3.4355C1.48336 5.6333 0.235577 8.61524 0.219727 11.73C0.219727 16.4 2.83973 20.31 4.75973 23.16L5.10973 23.68C7.02001 26.4486 9.0693 29.1187 11.2497 31.68L12.0097 32.57L12.7697 31.68C14.9499 29.1185 16.9992 26.4484 18.9097 23.68L19.2597 23.15C21.1697 20.3 23.7897 16.4 23.7897 11.73C23.7739 8.61351 22.5247 5.63006 20.3154 3.43197C18.106 1.23388 15.1163 -4.03561e-05 11.9997 9.89921e-10ZM11.9997 17C10.7023 17 9.43397 16.6153 8.35519 15.8944C7.2764 15.1736 6.43559 14.1491 5.93908 12.9504C5.44257 11.7517 5.31266 10.4327 5.56578 9.16021C5.81889 7.88769 6.44367 6.71881 7.36111 5.80138C8.27854 4.88395 9.44742 4.25917 10.7199 4.00605C11.9924 3.75293 13.3114 3.88284 14.5101 4.37935C15.7088 4.87586 16.7333 5.71667 17.4542 6.79546C18.175 7.87425 18.5597 9.14255 18.5597 10.44C18.5597 12.1798 17.8686 13.8484 16.6383 15.0786C15.4081 16.3089 13.7395 17 11.9997 17Z" fill="black" />
</svg>
