<svg width="100" height="100" viewBox="0 0 100 100" fill="none" xmlns="http://www.w3.org/2000/svg">
    <path d="M26.5625 96.875H73.4375C78.6078 96.875 82.8125 92.6703 82.8125 87.5V12.5C82.8125 7.32969 78.6078 3.125 73.4375 3.125H26.5625C21.3922 3.125 17.1875 7.32969 17.1875 12.5V87.5C17.1875 92.6703 21.3922 96.875 26.5625 96.875ZM20.3125 12.5C20.3125 9.05312 23.1156 6.25 26.5625 6.25H73.4375C76.8844 6.25 79.6875 9.05312 79.6875 12.5V87.5C79.6875 90.9469 76.8844 93.75 73.4375 93.75H26.5625C23.1156 93.75 20.3125 90.9469 20.3125 87.5V12.5Z" fill="black" />
    <path d="M29.6875 90.625H70.3125C73.7594 90.625 76.5625 87.8219 76.5625 84.375V15.625C76.5625 12.1781 73.7594 9.375 70.3125 9.375H29.6875C26.2406 9.375 23.4375 12.1781 23.4375 15.625V84.375C23.4375 87.8219 26.2406 90.625 29.6875 90.625ZM26.5625 15.625C26.5625 13.9016 27.9641 12.5 29.6875 12.5H70.3125C72.0359 12.5 73.4375 13.9016 73.4375 15.625V84.375C73.4375 86.0984 72.0359 87.5 70.3125 87.5H29.6875C27.9641 87.5 26.5625 86.0984 26.5625 84.375V15.625Z" fill="black" />
    <path d="M38.1047 42.1875H40.0203C42.0766 42.1875 43.75 40.5141 43.75 38.4578C43.75 35.3453 46.2828 32.8125 49.3953 32.8125H50.7812H50.7828C52.2437 32.8125 53.6156 33.3828 54.6469 34.4156C55.6812 35.4531 56.25 36.8391 56.25 38.3156C56.25 41.3125 53.8109 43.75 50.7812 43.75H50.7797C48.9031 43.75 47.1375 44.4812 45.8109 45.8078C44.4844 47.1344 43.75 48.9016 43.75 50.7797V62.5C43.75 65.0844 45.8531 67.1875 48.4375 67.1875C51.0219 67.1875 53.125 65.0844 53.125 62.5V53.125C60.0172 53.125 65.625 47.5172 65.625 40.625V35.9375C65.625 29.0453 60.0172 23.4375 53.125 23.4375H46.875C39.9828 23.4375 34.375 29.0453 34.375 35.9375V38.4578C34.375 40.5141 36.0484 42.1875 38.1047 42.1875ZM37.5 35.9375C37.5 30.7672 41.7047 26.5625 46.875 26.5625H53.125C58.2953 26.5625 62.5 30.7672 62.5 35.9375V40.625C62.5 45.7953 58.2953 50 53.125 50C51.4016 50 50 51.4016 50 53.125V62.5C50 63.3609 49.2984 64.0625 48.4375 64.0625C47.5766 64.0625 46.875 63.3609 46.875 62.5V50.7797C46.875 49.7375 47.2813 48.7563 48.0188 48.0188C48.7563 47.2812 49.7359 46.875 50.8141 46.875C55.5344 46.875 59.375 43.0359 59.375 38.3156C59.375 36.0062 58.4812 33.8375 56.8609 32.2109C55.2406 30.5844 53.0812 29.6875 50.7828 29.6875C50.7828 29.6875 50.7828 29.6875 50.7812 29.6875H49.3937C44.5594 29.6875 40.625 33.6219 40.625 38.4578C40.625 38.7906 40.3531 39.0625 40.0203 39.0625H38.1047C37.7719 39.0625 37.5 38.7906 37.5 38.4578V35.9375Z" fill="black" />
    <path d="M50 70.3125H46.875C45.1516 70.3125 43.75 71.7141 43.75 73.4375V76.5625C43.75 78.2859 45.1516 79.6875 46.875 79.6875H50C51.7234 79.6875 53.125 78.2859 53.125 76.5625V73.4375C53.125 71.7141 51.7234 70.3125 50 70.3125ZM46.875 76.5625V73.4375H50L50.0016 76.5625H46.875Z" fill="black" />
</svg>
