<svg width="24" height="14" viewBox="0 0 24 14" fill="none" xmlns="http://www.w3.org/2000/svg">
    <path d="M23.1752 0.996974C23.3385 0.454474 23.1752 0.0566406 22.4028 0.0566406H19.8443C19.1933 0.0566406 18.8958 0.400808 18.7325 0.778808C18.7325 0.778808 17.4317 3.95097 15.5883 6.00781C14.9933 6.60631 14.7215 6.79531 14.3972 6.79531C14.235 6.79531 13.9993 6.60631 13.9993 6.06381V0.996974C13.9993 0.345974 13.8115 0.0566406 13.269 0.0566406H9.24867C8.84267 0.0566406 8.59767 0.357641 8.59767 0.644641C8.59767 1.26064 9.51934 1.40297 9.61384 3.13897V6.90497C9.61384 7.72981 9.46567 7.88031 9.13901 7.88031C8.27217 7.88031 6.16284 4.69647 4.91101 1.05181C4.66717 0.343641 4.42101 0.0578078 3.76767 0.0578078H1.21034C0.478841 0.0578078 0.333008 0.401974 0.333008 0.779974C0.333008 1.45897 1.19984 4.81897 4.37084 9.26281C6.48484 12.2973 9.46101 13.9423 12.1723 13.9423C13.7975 13.9423 13.9982 13.5771 13.9982 12.9471V10.6535C13.9982 9.92314 14.1533 9.77614 14.6678 9.77614C15.0458 9.77614 15.6968 9.96747 17.2147 11.4293C18.9483 13.163 19.2353 13.9411 20.2095 13.9411H22.7668C23.4972 13.9411 23.8623 13.576 23.6523 12.855C23.4225 12.1375 22.5942 11.0933 21.4952 9.85781C20.8978 9.15314 20.0053 8.39481 19.7335 8.01564C19.3543 7.52681 19.464 7.31098 19.7335 6.87698C19.7347 6.87814 22.8508 2.48914 23.1752 0.996974Z" fill="black" />
</svg>
